<?xml version="1.0" encoding="utf-8"?>
<!-- Generator: Adobe Illustrator 16.0.0, SVG Export Plug-In . SVG Version: 6.00 Build 0)  -->
<!DOCTYPE svg PUBLIC "-//W3C//DTD SVG 1.1//EN" "http://www.w3.org/Graphics/SVG/1.1/DTD/svg11.dtd">
<svg version="1.1" id="图层_1" xmlns="http://www.w3.org/2000/svg" xmlns:xlink="http://www.w3.org/1999/xlink" x="0px" y="0px"
	 width="200px" height="200px" viewBox="0 0 200 200" enable-background="new 0 0 200 200" xml:space="preserve">
<path fill="#1296DB" d="M31.537,164.965l14.987-92.117c0.274-1.553,1.736-2.742,3.199-2.742h115.511V56.398
	c0-1.552-1.188-2.742-2.742-2.742H93.041L80.794,39.035H25.049c-1.554,0-2.742,1.189-2.742,2.742v120.448
	c0,1.551,1.188,2.74,2.742,2.74H31.537z"/>
<path fill="#1296DB" d="M184.99,81.346H60.248c-1.463,0-2.924,1.188-3.107,2.65l-14.165,78.318c-0.274,1.461,0.731,2.65,2.193,2.65
	h124.742c1.462,0,2.924-1.189,3.105-2.65l14.166-78.318C187.457,82.625,186.452,81.346,184.99,81.346z M137.926,128.227h-18.003
	v18.004h-10.602v-18.004H91.228v-10.691h18.004V99.532h10.691v18.003h18.003V128.227z"/>
</svg>
