<?xml version="1.0" encoding="utf-8"?>
<!-- Generator: Adobe Illustrator 16.0.0, SVG Export Plug-In . SVG Version: 6.00 Build 0)  -->
<!DOCTYPE svg PUBLIC "-//W3C//DTD SVG 1.1//EN" "http://www.w3.org/Graphics/SVG/1.1/DTD/svg11.dtd">
<svg version="1.1" id="Layer_1" xmlns="http://www.w3.org/2000/svg" xmlns:xlink="http://www.w3.org/1999/xlink" x="0px" y="0px"
	 width="64px" height="64px" viewBox="0 0 64 64" enable-background="new 0 0 64 64" xml:space="preserve">
<path fill="#DBDBDB" d="M22.597,35.468H5.936c-1.622,0-3.016,0.583-4.183,1.753C0.586,38.389,0.001,39.784,0,41.404v16.661
	c0,1.622,0.584,3.014,1.753,4.182c1.168,1.17,2.562,1.751,4.183,1.753h16.661c1.622,0,3.016-0.583,4.183-1.753
	c1.167-1.168,1.751-2.562,1.753-4.182V41.404c0-1.622-0.584-3.016-1.753-4.184S24.217,35.47,22.597,35.468z M22.597,0H5.936
	C4.314,0,2.92,0.583,1.753,1.752C0.586,2.921,0.001,4.315,0,5.936v16.661c0,1.622,0.584,3.017,1.753,4.184
	c1.168,1.167,2.562,1.751,4.183,1.753h16.661c1.622,0,3.016-0.584,4.183-1.753c1.167-1.169,1.751-2.563,1.753-4.184V5.936
	c0-1.622-0.584-3.017-1.753-4.184C25.611,0.585,24.217,0.001,22.597,0z M58.065,35.468H41.403c-1.621,0-3.015,0.583-4.183,1.753
	c-1.167,1.168-1.752,2.563-1.753,4.184v16.661c0,1.622,0.584,3.014,1.753,4.182c1.169,1.17,2.563,1.751,4.183,1.753h16.662
	c1.668,0,3.075-0.583,4.22-1.753C63.428,61.079,64,59.686,64,58.065V41.404c0-1.622-0.584-3.016-1.752-4.184
	C61.079,36.053,59.685,35.47,58.065,35.468z M58.065,0H41.403c-1.621,0-3.015,0.583-4.183,1.752
	c-1.167,1.169-1.752,2.563-1.753,4.184v16.661c0,1.622,0.584,3.017,1.753,4.184c1.169,1.167,2.563,1.751,4.183,1.753h16.662
	c1.668,0,3.075-0.584,4.22-1.753C63.428,25.611,64,24.216,64,22.596V5.936c0-1.622-0.584-3.017-1.752-4.184
	C61.079,0.585,59.685,0.001,58.065,0z"/>
</svg>
